{
  "accessors": [
    {
      "bufferView": 2,
      "componentType": 5126,
      "count": 7981,
      "max": [
        0.017577508464455605,
        0.045923516154289246,
        0.16434434056282043
      ],
      "min": [
        -0.5341721177101135,
        -0.045918598771095276,
        -0.0175153948366642
      ],
      "type": "VEC3"
    },
    {
      "bufferView": 2,
      "byteOffset": 95772,
      "componentType": 5126,
      "count": 7981,
      "max": [
        1.0,
        1.0,
        1.0
      ],
      "min": [
        -1.0,
        -1.0,
        -1.0
      ],
      "type": "VEC3"
    },
    {
      "bufferView": 3,
      "componentType": 5126,
      "count": 7981,
      "max": [
        1.0,
        1.0,
        1.0,
        1.0
      ],
      "min": [
        -1.0,
        -1.0,
        -1.0,
        -1.0
      ],
      "type": "VEC4"
    },
    {
      "bufferView": 1,
      "componentType": 5126,
      "count": 7981,
      "max": [
        1.9406508207321167,
        0.9974350333213806
      ],
      "min": [
        0.001948229968547821,
        0.0019491041311994195
      ],
      "type": "VEC2"
    },
    {
      "bufferView": 0,
      "componentType": 5125,
      "count": 29022,
      "type": "SCALAR"
    },
    {
      "bufferView": 2,
      "byteOffset": 191544,
      "componentType": 5126,
      "count": 1319,
      "max": [
        -0.00800446979701519,
        0.010421940125524998,
        0.0014541633427143097
      ],
      "min": [
        -0.3524012863636017,
        -0.010416961275041103,
        -0.06896966695785522
      ],
      "type": "VEC3"
    },
    {
      "bufferView": 2,
      "byteOffset": 207372,
      "componentType": 5126,
      "count": 1319,
      "max": [
        0.9999999403953552,
        1.0,
        0.9999998211860657
      ],
      "min": [
        -1.0,
        -1.0,
        -1.0
      ],
      "type": "VEC3"
    },
    {
      "bufferView": 3,
      "byteOffset": 127696,
      "componentType": 5126,
      "count": 1319,
      "max": [
        0.9999869465827942,
        1.0,
        0.9999999403953552,
        1.0
      ],
      "min": [
        -0.9999998807907104,
        -1.0,
        -0.9999929666519165,
        -1.0
      ],
      "type": "VEC4"
    },
    {
      "bufferView": 1,
      "byteOffset": 63848,
      "componentType": 5126,
      "count": 1319,
      "max": [
        0.8529738783836365,
        0.9695317149162292
      ],
      "min": [
        0.0019696950912475586,
        0.09495186060667038
      ],
      "type": "VEC2"
    },
    {
      "bufferView": 0,
      "byteOffset": 116088,
      "componentType": 5125,
      "count": 5910,
      "type": "SCALAR"
    },
    {
      "bufferView": 2,
      "byteOffset": 223200,
      "componentType": 5126,
      "count": 282,
      "max": [
        0.005971298553049564,
        0.012427179142832756,
        0.0023539001122117043
      ],
      "min": [
        -0.17238610982894897,
        -0.0124271921813488,
        -0.002353896386921406
      ],
      "type": "VEC3"
    },
    {
      "bufferView": 2,
      "byteOffset": 226584,
      "componentType": 5126,
      "count": 282,
      "max": [
        1.0,
        1.0,
        1.0
      ],
      "min": [
        -1.0,
        -1.0,
        -1.0
      ],
      "type": "VEC3"
    },
    {
      "bufferView": 3,
      "byteOffset": 148800,
      "componentType": 5126,
      "count": 282,
      "max": [
        1.0,
        1.0,
        1.0,
        1.0
      ],
      "min": [
        -1.0,
        -1.0,
        -1.0,
        -1.0
      ],
      "type": "VEC4"
    },
    {
      "bufferView": 1,
      "byteOffset": 74400,
      "componentType": 5126,
      "count": 282,
      "max": [
        0.950522243976593,
        0.9704571962356567
      ],
      "min": [
        0.0019486695528030396,
        0.029455838724970818
      ],
      "type": "VEC2"
    },
    {
      "bufferView": 0,
      "byteOffset": 139728,
      "componentType": 5125,
      "count": 744,
      "type": "SCALAR"
    },
    {
      "bufferView": 2,
      "byteOffset": 229968,
      "componentType": 5126,
      "count": 1800,
      "max": [
        0.1388334482908249,
        0.06203392148017883,
        0.037488311529159546
      ],
      "min": [
        0.028029173612594604,
        -0.06203392148017883,
        -0.08636962622404099
      ],
      "type": "VEC3"
    },
    {
      "bufferView": 2,
      "byteOffset": 251568,
      "componentType": 5126,
      "count": 1800,
      "max": [
        1.0,
        0.9999949336051941,
        1.0
      ],
      "min": [
        -1.0,
        -1.0,
        -1.0
      ],
      "type": "VEC3"
    },
    {
      "bufferView": 3,
      "byteOffset": 153312,
      "componentType": 5126,
      "count": 1800,
      "max": [
        1.0,
        1.0,
        0.9999949336051941,
        1.0
      ],
      "min": [
        -1.0,
        -1.0,
        -1.0,
        1.0
      ],
      "type": "VEC4"
    },
    {
      "bufferView": 1,
      "byteOffset": 76656,
      "componentType": 5126,
      "count": 1800,
      "max": [
        0.9950948357582092,
        0.9539048671722412
      ],
      "min": [
        0.0019508600234985352,
        0.03446376323699951
      ],
      "type": "VEC2"
    },
    {
      "bufferView": 0,
      "byteOffset": 142704,
      "componentType": 5125,
      "count": 5778,
      "type": "SCALAR"
    },
    {
      "bufferView": 2,
      "byteOffset": 273168,
      "componentType": 5126,
      "count": 3032,
      "max": [
        0.48406293988227844,
        0.06483203917741776,
        0.05732221156358719
      ],
      "min": [
        0.018179448321461678,
        -0.06482712179422379,
        -0.2973659038543701
      ],
      "type": "VEC3"
    },
    {
      "bufferView": 2,
      "byteOffset": 309552,
      "componentType": 5126,
      "count": 3032,
      "max": [
        1.0,
        1.0,
        1.0
      ],
      "min": [
        -1.0,
        -1.0,
        -1.0
      ],
      "type": "VEC3"
    },
    {
      "bufferView": 3,
      "byteOffset": 182112,
      "componentType": 5126,
      "count": 3032,
      "max": [
        1.0,
        1.0,
        1.0,
        1.0
      ],
      "min": [
        -1.0,
        -1.0,
        -1.0,
        -1.0
      ],
      "type": "VEC4"
    },
    {
      "bufferView": 1,
      "byteOffset": 91056,
      "componentType": 5126,
      "count": 3032,
      "max": [
        1.9951220750808716,
        0.9946398138999939
      ],
      "min": [
        0.001954317092895508,
        0.01495545543730259
      ],
      "type": "VEC2"
    },
    {
      "bufferView": 0,
      "byteOffset": 165816,
      "componentType": 5125,
      "count": 10878,
      "type": "SCALAR"
    },
    {
      "bufferView": 2,
      "byteOffset": 345936,
      "componentType": 5126,
      "count": 338,
      "max": [
        0.10102328658103943,
        0.01048091147094965,
        0.045348428189754486
      ],
      "min": [
        0.012513279914855957,
        -0.01047584693878889,
        -0.022394143044948578
      ],
      "type": "VEC3"
    },
    {
      "bufferView": 2,
      "byteOffset": 349992,
      "componentType": 5126,
      "count": 338,
      "max": [
        0.9885193705558777,
        1.0,
        0.9977918863296509
      ],
      "min": [
        -0.8759779334068298,
        -1.0,
        -0.9999083280563354
      ],
      "type": "VEC3"
    },
    {
      "bufferView": 3,
      "byteOffset": 230624,
      "componentType": 5126,
      "count": 338,
      "max": [
        0.9980519413948059,
        0.3803136646747589,
        0.8763449788093567,
        1.0
      ],
      "min": [
        -0.9999068379402161,
        -1.0,
        -0.9938404560089111,
        -1.0
      ],
      "type": "VEC4"
    },
    {
      "bufferView": 1,
      "byteOffset": 115312,
      "componentType": 5126,
      "count": 338,
      "max": [
        1.9416694641113281,
        0.893172562122345
      ],
      "min": [
        0.023226842284202576,
        0.02644932270050049
      ],
      "type": "VEC2"
    },
    {
      "bufferView": 0,
      "byteOffset": 209328,
      "componentType": 5125,
      "count": 1362,
      "type": "SCALAR"
    },
    {
      "bufferView": 2,
      "byteOffset": 354048,
      "componentType": 5126,
      "count": 454,
      "max": [
        0.12450957298278809,
        0.008765706792473793,
        0.02240288257598877
      ],
      "min": [
        -0.055880412459373474,
        -0.008765729144215584,
        -0.16646404564380646
      ],
      "type": "VEC3"
    },
    {
      "bufferView": 2,
      "byteOffset": 359496,
      "componentType": 5126,
      "count": 454,
      "max": [
        0.9965661764144897,
        1.0,
        0.9995209574699402
      ],
      "min": [
        -0.9972212314605713,
        -1.0,
        -0.9999985098838806
      ],
      "type": "VEC3"
    },
    {
      "bufferView": 3,
      "byteOffset": 236032,
      "componentType": 5126,
      "count": 454,
      "max": [
        0.9995208978652954,
        0.9913378953933716,
        0.9992957711219788,
        1.0
      ],
      "min": [
        -0.9999985098838806,
        -0.9913378357887268,
        -0.9068495035171509,
        -1.0
      ],
      "type": "VEC4"
    },
    {
      "bufferView": 1,
      "byteOffset": 118016,
      "componentType": 5126,
      "count": 454,
      "max": [
        1.9971487522125244,
        0.9940481781959534
      ],
      "min": [
        0.07744510471820831,
        0.1759762316942215
      ],
      "type": "VEC2"
    },
    {
      "bufferView": 0,
      "byteOffset": 214776,
      "componentType": 5125,
      "count": 2046,
      "type": "SCALAR"
    }
  ],
  "asset": {
    "extras": {
      "author": "Mik Santos (https://sketchfab.com/mikelkel2)",
      "license": "CC-BY-4.0 (http://creativecommons.org/licenses/by/4.0/)",
      "source": "https://sketchfab.com/3d-models/revolver-6e62a5c020024d47aac3782910e40d13",
      "title": "Revolver"
    },
    "generator": "Sketchfab-16.33.0",
    "version": "2.0"
  },
  "bufferViews": [
    {
      "buffer": 0,
      "byteLength": 222960,
      "name": "floatBufferViews",
      "target": 34963
    },
    {
      "buffer": 0,
      "byteLength": 121648,
      "byteOffset": 222960,
      "byteStride": 8,
      "name": "floatBufferViews",
      "target": 34962
    },
    {
      "buffer": 0,
      "byteLength": 364944,
      "byteOffset": 344608,
      "byteStride": 12,
      "name": "floatBufferViews",
      "target": 34962
    },
    {
      "buffer": 0,
      "byteLength": 243296,
      "byteOffset": 709552,
      "byteStride": 16,
      "name": "floatBufferViews",
      "target": 34962
    }
  ],
  "buffers": [
    {
      "byteLength": 952848,
      "uri": "scene.bin"
    }
  ],
  "images": [
    {
      "uri": "textures/Scene_-_Root_baseColor.png"
    },
    {
      "uri": "textures/Scene_-_Root_metallicRoughness.png"
    },
    {
      "uri": "textures/Scene_-_Root_normal.png"
    }
  ],
  "materials": [
    {
      "doubleSided": true,
      "name": "Scene_-_Root",
      "normalTexture": {
        "index": 2
      },
      "occlusionTexture": {
        "index": 1
      },
      "pbrMetallicRoughness": {
        "baseColorTexture": {
          "index": 0
        },
        "metallicRoughnessTexture": {
          "index": 1
        }
      }
    }
  ],
  "meshes": [
    {
      "name": "Barrel__0",
      "primitives": [
        {
          "attributes": {
            "NORMAL": 1,
            "POSITION": 0,
            "TANGENT": 2,
            "TEXCOORD_0": 3
          },
          "indices": 4,
          "material": 0,
          "mode": 4
        }
      ]
    },
    {
      "name": "Lever__0",
      "primitives": [
        {
          "attributes": {
            "NORMAL": 6,
            "POSITION": 5,
            "TANGENT": 7,
            "TEXCOORD_0": 8
          },
          "indices": 9,
          "material": 0,
          "mode": 4
        }
      ]
    },
    {
      "name": "Clip_Low.001__0",
      "primitives": [
        {
          "attributes": {
            "NORMAL": 11,
            "POSITION": 10,
            "TANGENT": 12,
            "TEXCOORD_0": 13
          },
          "indices": 14,
          "material": 0,
          "mode": 4
        }
      ]
    },
    {
      "name": "Mag_Low.001__0",
      "primitives": [
        {
          "attributes": {
            "NORMAL": 16,
            "POSITION": 15,
            "TANGENT": 17,
            "TEXCOORD_0": 18
          },
          "indices": 19,
          "material": 0,
          "mode": 4
        }
      ]
    },
    {
      "name": "Handle_Low.001__0",
      "primitives": [
        {
          "attributes": {
            "NORMAL": 21,
            "POSITION": 20,
            "TANGENT": 22,
            "TEXCOORD_0": 23
          },
          "indices": 24,
          "material": 0,
          "mode": 4
        }
      ]
    },
    {
      "name": "Barrel.001__0",
      "primitives": [
        {
          "attributes": {
            "NORMAL": 26,
            "POSITION": 25,
            "TANGENT": 27,
            "TEXCOORD_0": 28
          },
          "indices": 29,
          "material": 0,
          "mode": 4
        }
      ]
    },
    {
      "name": "Trigger_Low01.002__0",
      "primitives": [
        {
          "attributes": {
            "NORMAL": 31,
            "POSITION": 30,
            "TANGENT": 32,
            "TEXCOORD_0": 33
          },
          "indices": 34,
          "material": 0,
          "mode": 4
        }
      ]
    }
  ],
  "nodes": [
    {
      "children": [
        1
      ],
      "matrix": [
        1.0,
        0.0,
        0.0,
        0.0,
        0.0,
        2.220446049250313e-16,
        -1.0,
        0.0,
        0.0,
        1.0,
        2.220446049250313e-16,
        0.0,
        0.0,
        0.0,
        0.0,
        1.0
      ],
      "name": "Sketchfab_model"
    },
    {
      "children": [
        2
      ],
      "matrix": [
        0.009999999776482582,
        0.0,
        0.0,
        0.0,
        0.0,
        0.0,
        0.009999999776482582,
        0.0,
        0.0,
        -0.009999999776482582,
        0.0,
        0.0,
        0.0,
        0.0,
        0.0,
        1.0
      ],
      "name": "wpn_Revolver_Final_LP.fbx"
    },
    {
      "children": [
        3,
        5,
        7,
        9,
        11,
        13,
        15
      ],
      "name": "RootNode"
    },
    {
      "children": [
        4
      ],
      "matrix": [
        100.0,
        0.0,
        0.0,
        0.0,
        0.0,
        -1.629206793918314e-05,
        -99.99999999999868,
        0.0,
        0.0,
        99.99999999999868,
        -1.629206793918314e-05,
        0.0,
        3.881998062133789,
        -10.067352294921875,
        0.00024605251383036375,
        1.0
      ],
      "name": "Barrel"
    },
    {
      "mesh": 0,
      "name": "Barrel__0"
    },
    {
      "children": [
        6
      ],
      "matrix": [
        100.0,
        0.0,
        0.0,
        0.0,
        -0.0,
        -1.629206793918314e-05,
        -99.99999999999868,
        0.0,
        0.0,
        99.99999999999868,
        -1.629206793918314e-05,
        0.0,
        -1.1886540651321411,
        -7.967082500457764,
        0.0002475426299497485,
        1.0
      ],
      "name": "Lever"
    },
    {
      "mesh": 1,
      "name": "Lever__0"
    },
    {
      "children": [
        8
      ],
      "matrix": [
        100.0,
        0.0,
        0.0,
        0.0,
        0.0,
        -1.629206793918314e-05,
        -99.99999999999868,
        0.0,
        0.0,
        99.99999999999868,
        -1.629206793918314e-05,
        0.0,
        16.007761001586914,
        4.516834735870361,
        0.0,
        1.0
      ],
      "name": "Clip_Low.001"
    },
    {
      "mesh": 2,
      "name": "Clip_Low.001__0"
    },
    {
      "children": [
        10
      ],
      "matrix": [
        100.0,
        0.0,
        0.0,
        0.0,
        0.0,
        -1.629206793918314e-05,
        -99.99999999999868,
        0.0,
        0.0,
        99.99999999999868,
        -1.629206793918314e-05,
        0.0,
        0.0,
        0.0,
        0.0,
        1.0
      ],
      "name": "Mag_Low.001"
    },
    {
      "mesh": 3,
      "name": "Mag_Low.001__0"
    },
    {
      "children": [
        12
      ],
      "matrix": [
        100.0,
        0.0,
        0.0,
        0.0,
        0.0,
        -1.629206793918314e-05,
        -99.99999999999868,
        0.0,
        0.0,
        99.99999999999868,
        -1.629206793918314e-05,
        0.0,
        0.0,
        0.0,
        0.00024605251383036375,
        1.0
      ],
      "name": "Handle_Low.001"
    },
    {
      "mesh": 4,
      "name": "Handle_Low.001__0"
    },
    {
      "children": [
        14
      ],
      "matrix": [
        100.0,
        0.0,
        0.0,
        0.0,
        0.0,
        -1.629206793918314e-05,
        -99.99999999999868,
        0.0,
        0.0,
        99.99999999999868,
        -1.629206793918314e-05,
        0.0,
        20.653532028198242,
        -1.017610788345337,
        0.00024726841365918517,
        1.0
      ],
      "name": "Barrel.001"
    },
    {
      "mesh": 5,
      "name": "Barrel.001__0"
    },
    {
      "children": [
        16
      ],
      "matrix": [
        100.0,
        0.0,
        0.0,
        0.0,
        0.0,
        -1.629206793918314e-05,
        -99.99999999999868,
        0.0,
        0.0,
        99.99999999999868,
        -1.629206793918314e-05,
        0.0,
        18.69755744934082,
        -13.952342987060547,
        7.283063041541027e-12,
        1.0
      ],
      "name": "Trigger_Low01.002"
    },
    {
      "mesh": 6,
      "name": "Trigger_Low01.002__0"
    }
  ],
  "samplers": [
    {
      "magFilter": 9729,
      "minFilter": 9987,
      "wrapS": 10497,
      "wrapT": 10497
    }
  ],
  "scene": 0,
  "scenes": [
    {
      "name": "Sketchfab_Scene",
      "nodes": [
        0
      ]
    }
  ],
  "textures": [
    {
      "sampler": 0,
      "source": 0
    },
    {
      "sampler": 0,
      "source": 1
    },
    {
      "sampler": 0,
      "source": 2
    }
  ]
}
